<svg width="20" height="20" viewBox="0 0 20 20" fill="none" xmlns="http://www.w3.org/2000/svg">
<path d="M7 5.33333H14.2917C16.0472 5.33333 16.925 5.33333 17.5556 5.75466C17.8286 5.93706 18.0629 6.17143 18.2453 6.44441C18.6667 7.07497 18.6667 7.95275 18.6667 9.70833C18.6667 12.6343 18.6667 14.0973 17.9644 15.1483C17.6605 15.6032 17.2698 15.9938 16.8149 16.2978C15.7639 17 14.301 17 11.375 17H10.3333C6.40496 17 4.44077 17 3.22039 15.7796C2 14.5592 2 12.595 2 8.66667V6.12022C2 4.6065 2 3.84963 2.31693 3.28172C2.54285 2.87689 2.87689 2.54285 3.28172 2.31693C3.84963 2 4.6065 2 6.12022 2C7.09002 2 7.57492 2 7.99938 2.15917C8.9685 2.5226 9.36817 3.40298 9.8055 4.27761L10.3333 5.33333" fill="white"/>
<path d="M7 5.33333H14.2917C16.0472 5.33333 16.925 5.33333 17.5556 5.75466C17.8286 5.93706 18.0629 6.17143 18.2453 6.44441C18.6667 7.07497 18.6667 7.95275 18.6667 9.70833C18.6667 12.6343 18.6667 14.0973 17.9644 15.1483C17.6605 15.6032 17.2698 15.9938 16.8149 16.2978C15.7639 17 14.301 17 11.375 17H10.3333C6.40496 17 4.44077 17 3.22039 15.7796C2 14.5592 2 12.595 2 8.66667V6.12022C2 4.6065 2 3.84963 2.31693 3.28172C2.54285 2.87689 2.87689 2.54285 3.28172 2.31693C3.84963 2 4.6065 2 6.12022 2C7.09002 2 7.57492 2 7.99938 2.15917C8.9685 2.5226 9.36817 3.40298 9.8055 4.27761L10.3333 5.33333" stroke="#FEFEFE" stroke-width="1.25" stroke-linecap="round"/>
<path d="M17 7L12 7" stroke="black" stroke-linecap="round"/>
</svg>
