<svg width="20" height="20" viewBox="0 0 20 20" fill="none" xmlns="http://www.w3.org/2000/svg">
<path d="M6.66667 5.83333H13.9583C15.7139 5.83333 16.5917 5.83333 17.2223 6.25466C17.4953 6.43706 17.7296 6.67143 17.912 6.94441C18.3333 7.57497 18.3333 8.45275 18.3333 10.2083C18.3333 13.1343 18.3333 14.5973 17.6311 15.6483C17.3272 16.1032 16.9365 16.4938 16.4816 16.7978C15.4306 17.5 13.9677 17.5 11.0417 17.5H10C6.07163 17.5 4.10745 17.5 2.88706 16.2796C1.66667 15.0592 1.66667 13.095 1.66667 9.16667V6.62023C1.66667 5.1065 1.66667 4.34963 1.98361 3.78172C2.20952 3.37689 2.54356 3.04285 2.94839 2.81693C3.51631 2.5 4.27317 2.5 5.7869 2.5C6.75669 2.5 7.24159 2.5 7.66605 2.65917C8.63517 3.0226 9.03484 3.90298 9.47217 4.77761L10 5.83333" stroke="#959DAB" stroke-width="0.8" stroke-linecap="round"/>
</svg>
