<svg width="20" height="20" viewBox="0 0 20 20" fill="none" xmlns="http://www.w3.org/2000/svg">
<path d="M6 3.5L2.5 5.32812V15L5 16.5L10 18.5L14 17L17.5 15V13V8L17 5.5L15.5 4L12.5 2.5L10 2L6 3.5Z" fill="white"/>
<path d="M10 18.3333C9.31817 18.3333 8.66683 18.0581 7.36411 17.5078C4.12137 16.138 2.5 15.4531 2.5 14.301C2.5 13.9784 2.5 8.387 2.5 5.83325M10 18.3333C10.6818 18.3333 11.3332 18.0581 12.6359 17.5078C15.8787 16.138 17.5 15.4531 17.5 14.301V5.83325M10 18.3333V9.46225" stroke="white" stroke-width="1.25" stroke-linecap="round" stroke-linejoin="round"/>
<path d="M5 10L6.66667 10.8333" stroke="#1A1A1A" stroke-width="1.25" stroke-linecap="round" stroke-linejoin="round"/>
<path d="M17 4.5L9 8.5" stroke="#1A1A1A" stroke-width="1.25" stroke-linecap="round" stroke-linejoin="round"/>
<path d="M6.93827 8.07623L4.50393 6.89829C3.16797 6.25183 2.5 5.92861 2.5 5.41675C2.5 4.90489 3.16797 4.58166 4.50393 3.93521L6.93827 2.75726C8.44067 2.03026 9.19192 1.66675 10 1.66675C10.8081 1.66675 11.5593 2.03025 13.0617 2.75726L15.4961 3.93521C16.832 4.58166 17.5 4.90489 17.5 5.41675C17.5 5.92861 16.832 6.25183 15.4961 6.89829L13.0617 8.07623C11.5593 8.80325 10.8081 9.16675 10 9.16675C9.19192 9.16675 8.44067 8.80325 6.93827 8.07623Z" stroke="white" stroke-width="1.25" stroke-linecap="round" stroke-linejoin="round"/>
</svg>
