<svg width="20" height="20" viewBox="0 0 20 20" fill="none" xmlns="http://www.w3.org/2000/svg">
<path d="M14.5833 4.16675C15.2737 4.16675 15.8333 4.72639 15.8333 5.41675C15.8333 6.1071 15.2737 6.66675 14.5833 6.66675C13.893 6.66675 13.3333 6.1071 13.3333 5.41675C13.3333 4.72639 13.893 4.16675 14.5833 4.16675Z" stroke="#959DAB" stroke-width="0.8" stroke-linecap="round" stroke-linejoin="round"/>
<path d="M2.31187 9.28666C1.47591 10.2203 1.45792 11.6289 2.22514 12.6198C3.7476 14.5862 5.41396 16.2525 7.38028 17.7749C8.37117 18.5422 9.77976 18.5242 10.7134 17.6882C13.2483 15.4186 15.5696 13.0467 17.8099 10.44C18.0314 10.1823 18.1699 9.8665 18.201 9.52808C18.3385 8.03173 18.621 3.72064 17.4503 2.54986C16.2794 1.37909 11.9683 1.66156 10.472 1.79905C10.1336 1.83015 9.81776 1.96869 9.56001 2.19017C6.95344 4.43046 4.58152 6.75184 2.31187 9.28666Z" stroke="#959DAB" stroke-width="0.8" stroke-linecap="round" stroke-linejoin="round"/>
<path d="M5.83334 11.6667L8.33333 14.1667" stroke="#959DAB" stroke-width="0.8" stroke-linecap="round" stroke-linejoin="round"/>
</svg>
