<svg width="18" height="18" viewBox="0 0 18 18" fill="none" xmlns="http://www.w3.org/2000/svg">
<g clip-path="url(#clip0_244_565)">
<path d="M2.7 7.64985C1.98 8.36985 1.5 9.74985 1.35 10.3498L4.5 14.3999L7.2 16.1999H9L12.15 13.4999C13.2 12.2999 15.48 9.71993 16.2 8.99993C16.92 8.27993 16.8 7.19993 16.65 6.74993C16.2 0.899927 15.3 2.24985 14.4 1.79985C13.68 1.43985 10.5 1.64985 9 1.79985C7.2 3.44985 3.42 6.92985 2.7 7.64985Z" fill="white"/>
<path d="M2.08067 8.35792C1.32831 9.19822 1.31213 10.4659 2.00262 11.3578C3.37283 13.1275 4.87256 14.6272 6.64225 15.9973C7.53405 16.6879 8.80178 16.6717 9.64208 15.9193C11.9234 13.8766 14.0126 11.7419 16.0289 9.39592C16.2283 9.16402 16.3529 8.87978 16.3809 8.5752C16.5047 7.22849 16.7589 3.3485 15.7052 2.2948C14.6515 1.24111 10.7715 1.49533 9.4248 1.61907C9.12023 1.64706 8.83598 1.77175 8.604 1.97108C6.25809 3.98734 4.12336 6.07658 2.08067 8.35792Z" stroke="white" stroke-width="1.25" stroke-linecap="round" stroke-linejoin="round"/>
<path d="M13.125 3.75024C13.7463 3.75024 14.25 4.25392 14.25 4.87524C14.25 5.49656 13.7463 6.00024 13.125 6.00024C12.5037 6.00024 12 5.49656 12 4.87524C12 4.25392 12.5037 3.75024 13.125 3.75024Z" fill="#1A1A1A" stroke="#1A1A1A" stroke-linecap="round" stroke-linejoin="round"/>
<path d="M5.25002 10.5002L7.5 12.7502" stroke="#1A1A1A" stroke-width="1.25" stroke-linecap="round" stroke-linejoin="round"/>
</g>
<defs>
<clipPath id="clip0_244_565">
<rect width="18" height="18" fill="white"/>
</clipPath>
</defs>
</svg>
