<svg width="6" height="8" viewBox="0 0 6 8" fill="none" xmlns="http://www.w3.org/2000/svg">
<g clip-path="url(#clip0_474_669)">
<path d="M2.54559 7.4C2.54559 7.62092 2.72467 7.8 2.94559 7.8C3.1665 7.8 3.34559 7.62092 3.34559 7.4H2.94559H2.54559ZM3.22843 0.117158C3.07222 -0.0390525 2.81895 -0.0390525 2.66274 0.117158L0.117157 2.66275C-0.0390524 2.81896 -0.0390524 3.07222 0.117157 3.22843C0.273367 3.38464 0.526633 3.38464 0.682842 3.22843L2.94559 0.965686L5.20833 3.22843C5.36454 3.38464 5.6178 3.38464 5.77401 3.22843C5.93022 3.07222 5.93022 2.81896 5.77401 2.66275L3.22843 0.117158ZM2.94559 7.4H3.34559V0.4H2.94559H2.54559V7.4H2.94559Z" fill="#EE668D"/>
</g>
<defs>
<clipPath id="clip0_474_669">
<rect width="6" height="8" fill="white"/>
</clipPath>
</defs>
</svg>
