<svg width="6" height="8" viewBox="0 0 6 8" fill="none" xmlns="http://www.w3.org/2000/svg">
<g clip-path="url(#clip0_215_318)">
<path d="M3.45441 0.600004C3.45441 0.379085 3.27533 0.200004 3.05441 0.200004C2.8335 0.200004 2.65441 0.379084 2.65441 0.600004L3.05441 0.600004L3.45441 0.600004ZM2.77157 7.88284C2.92778 8.03905 3.18105 8.03905 3.33726 7.88284L5.88284 5.33725C6.03905 5.18104 6.03905 4.92778 5.88284 4.77157C5.72663 4.61536 5.47337 4.61536 5.31716 4.77157L3.05441 7.03431L0.791673 4.77157C0.635463 4.61536 0.382203 4.61536 0.225993 4.77157C0.0697829 4.92778 0.0697829 5.18104 0.225993 5.33725L2.77157 7.88284ZM3.05441 0.600004L2.65441 0.600004L2.65441 7.6L3.05441 7.6L3.45441 7.6L3.45441 0.600004L3.05441 0.600004Z" fill="#66ACEE"/>
</g>
<defs>
<clipPath id="clip0_215_318">
<rect width="6" height="8" fill="white" transform="translate(6 8) rotate(-180)"/>
</clipPath>
</defs>
</svg>
