<svg width="58" height="39" viewBox="0 0 58 39" fill="none" xmlns="http://www.w3.org/2000/svg">
<path d="M0 4.875C0 2.18261 2.16396 0 4.83333 0H53.1667C55.836 0 58 2.18261 58 4.875V34.125C58 36.8174 55.836 39 53.1667 39H4.83333C2.16396 39 0 36.8174 0 34.125V4.875Z" fill="#EDECF7"/>
<path d="M49.9162 12.2305H46.8777C45.9591 12.2305 45.2525 12.5156 44.8285 13.4421L39.0342 26.7699H43.1326C43.1326 26.7699 43.8392 24.9881 43.9806 24.5605C44.4045 24.5605 48.4323 24.5605 48.9976 24.5605C49.139 25.0594 49.4923 26.6987 49.4923 26.6987H53.1667L49.9162 12.2305ZM45.1112 21.5671C45.4645 20.7118 46.6658 17.5046 46.6658 17.5046C46.6658 17.5759 47.0191 16.6493 47.1604 16.1504L47.443 17.4333C47.443 17.4333 48.2203 20.9256 48.3617 21.6384H45.1112V21.5671Z" fill="#3362AB"/>
<path d="M39.3167 21.9942C39.3167 24.9876 36.6315 26.9832 32.4624 26.9832C30.6958 26.9832 28.9999 26.6269 28.0813 26.1992L28.6466 22.9207L29.1412 23.1345C30.4132 23.7047 31.2611 23.9185 32.8157 23.9185C33.9463 23.9185 35.1476 23.4909 35.1476 22.4931C35.1476 21.8516 34.6529 21.424 33.0984 20.7113C31.6144 19.9986 29.6359 18.8582 29.6359 16.7913C29.6359 13.9405 32.3917 12.0161 36.2782 12.0161C37.7621 12.0161 39.034 12.3012 39.8113 12.6576L39.246 15.7935L38.9634 15.5084C38.2567 15.2234 37.3381 14.9383 35.9955 14.9383C34.5116 15.0095 33.805 15.651 33.805 16.2212C33.805 16.8626 34.6529 17.3615 35.9955 18.003C38.2567 19.072 39.3167 20.2837 39.3167 21.9942Z" fill="#3362AB"/>
<path d="M4.83325 12.3725L4.90391 12.0874H10.9809C11.8289 12.0874 12.4648 12.3725 12.6768 13.299L14.0194 19.7135C12.6768 16.2924 9.56766 13.5128 4.83325 12.3725Z" fill="#F9B50B"/>
<path d="M22.5696 12.2305L16.422 26.6987H12.2529L8.71973 14.5824C11.2636 16.2217 13.3835 18.7875 14.1608 20.5693L14.5847 22.066L18.4005 12.1592H22.5696V12.2305Z" fill="#3362AB"/>
<path d="M24.1949 12.1592H28.0813L25.6081 26.6987H21.7217L24.1949 12.1592Z" fill="#3362AB"/>
</svg>
