<svg width="20" height="21" viewBox="0 0 20 21" fill="none" xmlns="http://www.w3.org/2000/svg">
<path d="M8.75 7.65625V5.90625C8.75 4.46798 8.75 3.74884 8.37167 3.26481C8.30242 3.17621 8.22504 3.09495 8.14066 3.02223C7.67967 2.625 6.99478 2.625 5.625 2.625C4.25522 2.625 3.57032 2.625 3.10934 3.02223C3.02496 3.09495 2.94757 3.17621 2.87832 3.26481C2.5 3.74884 2.5 4.46798 2.5 5.90625V7.65625C2.5 9.09449 2.5 9.81365 2.87832 10.2977C2.94757 10.3863 3.02496 10.4675 3.10934 10.5402C3.57032 10.9375 4.25522 10.9375 5.625 10.9375C6.99478 10.9375 7.67967 10.9375 8.14066 10.5402C8.22504 10.4675 8.30242 10.3863 8.37167 10.2977C8.75 9.81365 8.75 9.09449 8.75 7.65625Z" fill="black" stroke="black" stroke-width="1.25" stroke-linejoin="round"/>
<path d="M6.45833 13.5625H4.79167C4.21018 13.5625 3.91944 13.5625 3.68286 13.6378C3.15019 13.8075 2.73335 14.2452 2.57177 14.8045C2.5 15.0529 2.5 15.3582 2.5 15.9687C2.5 16.5793 2.5 16.8846 2.57177 17.133C2.73335 17.6923 3.15019 18.13 3.68286 18.2997C3.91944 18.375 4.21018 18.375 4.79167 18.375H6.45833C7.03982 18.375 7.33056 18.375 7.56714 18.2997C8.09981 18.13 8.51667 17.6923 8.67825 17.133C8.75 16.8846 8.75 16.5793 8.75 15.9687C8.75 15.3582 8.75 15.0529 8.67825 14.8045C8.51667 14.2452 8.09981 13.8075 7.56714 13.6378C7.33056 13.5625 7.03982 13.5625 6.45833 13.5625Z" fill="black" stroke="black" stroke-width="1.25" stroke-linejoin="round"/>
<path d="M17.5 15.0937V13.3437C17.5 11.9055 17.5 11.1864 17.1217 10.7023C17.0524 10.6137 16.9751 10.5325 16.8907 10.4598C16.4297 10.0625 15.7447 10.0625 14.375 10.0625C13.0052 10.0625 12.3203 10.0625 11.8593 10.4598C11.7749 10.5325 11.6976 10.6137 11.6283 10.7023C11.25 11.1864 11.25 11.9055 11.25 13.3437V15.0937C11.25 16.532 11.25 17.2511 11.6283 17.7352C11.6976 17.8238 11.7749 17.905 11.8593 17.9777C12.3203 18.375 13.0052 18.375 14.375 18.375C15.7447 18.375 16.4297 18.375 16.8907 17.9777C16.9751 17.905 17.0524 17.8238 17.1217 17.7352C17.5 17.2511 17.5 16.532 17.5 15.0937Z" fill="black" stroke="black" stroke-width="1.25" stroke-linejoin="round"/>
<path d="M15.2083 2.625H13.5417C12.9602 2.625 12.6694 2.625 12.4328 2.70035C11.9002 2.87002 11.4833 3.3077 11.3217 3.867C11.25 4.11541 11.25 4.42069 11.25 5.03125C11.25 5.64181 11.25 5.94709 11.3217 6.1955C11.4833 6.7548 11.9002 7.19248 12.4328 7.36214C12.6694 7.4375 12.9602 7.4375 13.5417 7.4375H15.2083C15.7898 7.4375 16.0806 7.4375 16.3172 7.36214C16.8498 7.19248 17.2667 6.7548 17.4282 6.1955C17.5 5.94709 17.5 5.64181 17.5 5.03125C17.5 4.42069 17.5 4.11541 17.4282 3.867C17.2667 3.3077 16.8498 2.87002 16.3172 2.70035C16.0806 2.625 15.7898 2.625 15.2083 2.625Z" fill="black" stroke="black" stroke-width="1.25" stroke-linejoin="round"/>
</svg>
