<svg width="20" height="20" viewBox="0 0 20 20" fill="none" xmlns="http://www.w3.org/2000/svg">
<path d="M6.66669 5.83333H13.9584C15.7139 5.83333 16.5917 5.83333 17.2223 6.25466C17.4953 6.43706 17.7296 6.67143 17.912 6.94441C18.3334 7.57497 18.3334 8.45275 18.3334 10.2083C18.3334 13.1343 18.3334 14.5973 17.6311 15.6483C17.3272 16.1032 16.9365 16.4938 16.4816 16.7978C15.4306 17.5 13.9677 17.5 11.0417 17.5H10C6.07165 17.5 4.10746 17.5 2.88708 16.2796C1.66669 15.0592 1.66669 13.095 1.66669 9.16667V6.62023C1.66669 5.1065 1.66669 4.34963 1.98362 3.78172C2.20954 3.37689 2.54358 3.04285 2.9484 2.81693C3.51632 2.5 4.27319 2.5 5.78691 2.5C6.7567 2.5 7.2416 2.5 7.66607 2.65917C8.63519 3.0226 9.03485 3.90298 9.47219 4.77761L10 5.83333" fill="black"/>
<path d="M6.66669 5.83333H13.9584C15.7139 5.83333 16.5917 5.83333 17.2223 6.25466C17.4953 6.43706 17.7296 6.67143 17.912 6.94441C18.3334 7.57497 18.3334 8.45275 18.3334 10.2083C18.3334 13.1343 18.3334 14.5973 17.6311 15.6483C17.3272 16.1032 16.9365 16.4938 16.4816 16.7978C15.4306 17.5 13.9677 17.5 11.0417 17.5H10C6.07165 17.5 4.10746 17.5 2.88708 16.2796C1.66669 15.0592 1.66669 13.095 1.66669 9.16667V6.62023C1.66669 5.1065 1.66669 4.34963 1.98362 3.78172C2.20954 3.37689 2.54358 3.04285 2.9484 2.81693C3.51632 2.5 4.27319 2.5 5.78691 2.5C6.7567 2.5 7.2416 2.5 7.66607 2.65917C8.63519 3.0226 9.03485 3.90298 9.47219 4.77761L10 5.83333" stroke="black" stroke-width="1.25" stroke-linecap="round"/>
</svg>
