<svg width="20" height="20" viewBox="0 0 20 20" fill="none" xmlns="http://www.w3.org/2000/svg">
<path d="M2.31185 9.28666C1.47589 10.2203 1.45791 11.6289 2.22513 12.6198C3.74758 14.5862 5.41394 16.2525 7.38027 17.7749C8.37116 18.5422 9.77974 18.5242 10.7134 17.6882C13.2482 15.4186 15.5696 13.0467 17.8099 10.44C18.0314 10.1823 18.1699 9.8665 18.201 9.52808C18.3385 8.03173 18.621 3.72064 17.4502 2.54986C16.2794 1.37909 11.9683 1.66156 10.472 1.79905C10.1336 1.83015 9.81774 1.96869 9.55999 2.19017C6.95343 4.43046 4.5815 6.75184 2.31185 9.28666Z" fill="black" stroke="black" stroke-width="1.25" stroke-linecap="round" stroke-linejoin="round"/>
<path d="M5.83334 11.6667L8.33333 14.1667" stroke="#F9FBFD" stroke-width="1.25" stroke-linecap="round" stroke-linejoin="round"/>
<path d="M14.5833 4.16675C15.2737 4.16675 15.8333 4.72639 15.8333 5.41675C15.8333 6.1071 15.2737 6.66675 14.5833 6.66675C13.893 6.66675 13.3333 6.1071 13.3333 5.41675C13.3333 4.72639 13.893 4.16675 14.5833 4.16675Z" fill="#F9FBFD" stroke="#F9FBFD" stroke-width="1.25" stroke-linecap="round" stroke-linejoin="round"/>
</svg>
