<svg width="20" height="20" viewBox="0 0 20 20" fill="none" xmlns="http://www.w3.org/2000/svg">
<path d="M13.5903 3.65336C13.0978 3.65336 12.8514 3.65336 12.6271 3.57012C12.5959 3.55856 12.5653 3.54584 12.535 3.53198C12.3175 3.43221 12.1434 3.25807 11.7951 2.90981C10.9935 2.10822 10.5928 1.70743 10.0996 1.67047C10.0334 1.66551 9.96669 1.66551 9.90044 1.67047C9.40727 1.70743 9.00644 2.10822 8.2049 2.9098C7.85663 3.25807 7.68249 3.43221 7.46499 3.53198C7.43479 3.54584 7.40407 3.55856 7.37291 3.57012C7.14856 3.65336 6.9023 3.65336 6.40978 3.65336H6.31893C5.06234 3.65336 4.43405 3.65336 4.04368 4.04374C3.6533 4.43411 3.6533 5.0624 3.6533 6.31899V6.40984C3.6533 6.90236 3.6533 7.14862 3.57006 7.37297C3.5585 7.40413 3.54578 7.43485 3.53192 7.46506C3.43215 7.68256 3.25801 7.85669 2.90974 8.20496C2.10816 9.0065 1.70737 9.40733 1.67041 9.9005C1.66545 9.96675 1.66545 10.0334 1.67041 10.0997C1.70737 10.5928 2.10816 10.9936 2.90974 11.7952C3.25801 12.1435 3.43215 12.3176 3.53192 12.5351C3.54578 12.5653 3.5585 12.596 3.57006 12.6272C3.6533 12.8515 3.6533 13.0978 3.6533 13.5903V13.6812C3.6533 14.9377 3.6533 15.5661 4.04368 15.9564C4.43405 16.3468 5.06234 16.3468 6.31893 16.3468H6.40978C6.9023 16.3468 7.14856 16.3468 7.37291 16.4301C7.40407 16.4416 7.43479 16.4543 7.46499 16.4682C7.68249 16.568 7.85663 16.7421 8.2049 17.0903C9.00644 17.8919 9.40727 18.2927 9.90044 18.3297C9.96669 18.3347 10.0333 18.3347 10.0996 18.3297C10.5928 18.2927 10.9935 17.8919 11.7951 17.0903C12.1434 16.7421 12.3175 16.568 12.535 16.4682C12.5653 16.4543 12.5959 16.4416 12.6271 16.4301C12.8514 16.3468 13.0978 16.3468 13.5903 16.3468H13.6811C14.9377 16.3468 15.566 16.3468 15.9564 15.9564C16.3468 15.5661 16.3468 14.9377 16.3468 13.6812V13.5903C16.3468 13.0978 16.3468 12.8515 16.43 12.6272C16.4415 12.596 16.4543 12.5653 16.4681 12.5351C16.5679 12.3176 16.742 12.1435 17.0903 11.7952C17.8919 10.9936 18.2927 10.5928 18.3296 10.0997C18.3346 10.0333 18.3346 9.96675 18.3296 9.9005C18.2927 9.40733 17.8919 9.0065 17.0903 8.20496C16.742 7.85669 16.5679 7.68256 16.4681 7.46506C16.4543 7.43485 16.4415 7.40413 16.43 7.37297C16.3468 7.14862 16.3468 6.90236 16.3468 6.40984V6.31899C16.3468 5.0624 16.3468 4.43411 15.9564 4.04374C15.566 3.65336 14.9377 3.65336 13.6811 3.65336H13.5903Z" fill="white" stroke="white" stroke-width="1.25"/>
<path d="M12.9166 9.99992C12.9166 11.6108 11.6108 12.9166 9.99998 12.9166C8.38915 12.9166 7.08331 11.6108 7.08331 9.99992C7.08331 8.38909 8.38915 7.08325 9.99998 7.08325C11.6108 7.08325 12.9166 8.38909 12.9166 9.99992Z" fill="black" stroke="black" stroke-width="1.25"/>
</svg>
