<svg width="32" height="32" viewBox="0 0 32 32" fill="none" xmlns="http://www.w3.org/2000/svg">
<circle cx="16" cy="16" r="15.5" transform="matrix(-4.37114e-08 1 1 4.37114e-08 1.39876e-06 0)" stroke="#2B2929" stroke-opacity="0.56"/>
<path d="M22.0952 15.25C22.5094 15.25 22.8452 15.5858 22.8452 16C22.8452 16.4142 22.5094 16.75 22.0952 16.75L22.0952 16L22.0952 15.25ZM9.37441 16.5303C9.08152 16.2374 9.08152 15.7626 9.37441 15.4697L14.1474 10.6967C14.4403 10.4038 14.9151 10.4038 15.208 10.6967C15.5009 10.9896 15.5009 11.4645 15.208 11.7574L10.9654 16L15.208 20.2426C15.5009 20.5355 15.5009 21.0104 15.208 21.3033C14.9151 21.5962 14.4403 21.5962 14.1474 21.3033L9.37441 16.5303ZM22.0952 16L22.0952 16.75L9.90474 16.75L9.90474 16L9.90474 15.25L22.0952 15.25L22.0952 16Z" fill="#501313"/>
</svg>
